<?xml version="1.0" encoding="UTF-8"?>
<svg version="1.1" xmlns="http://www.w3.org/2000/svg" width="512" height="512">
<path d="M0 0 C1.97323242 -0.00580078 1.97323242 -0.00580078 3.98632812 -0.01171875 C16.15102009 0.00031954 27.86463743 0.63200694 39.75 3.3125 C41.22811157 3.64133179 41.22811157 3.64133179 42.73608398 3.97680664 C87.72246942 14.32472935 129.8706713 41.15621471 156.5625 79.125 C156.97161621 79.70040527 157.38073242 80.27581055 157.80224609 80.86865234 C180.89945806 113.54167579 192.81629256 151.09390944 192.69287109 191.06347656 C192.68750489 193.12312169 192.69285882 195.18254886 192.69921875 197.2421875 C192.70821601 209.66016826 192.01680648 221.56274379 189.25 233.6875 C188.91234619 235.19316528 188.91234619 235.19316528 188.56787109 236.72924805 C186.96962779 243.7004659 185.12155811 250.4401135 182.5625 257.125 C182.05418255 258.52064953 181.5464166 259.91649998 181.0390625 261.3125 C174.71015756 278.44434897 165.93781022 293.13884261 155.5625 308.125 C155.0989209 308.81335938 154.6353418 309.50171875 154.15771484 310.2109375 C153.01017018 311.88498288 151.79246287 313.51054096 150.5625 315.125 C149.9025 315.125 149.2425 315.125 148.5625 315.125 C148.34464844 315.65996094 148.12679688 316.19492187 147.90234375 316.74609375 C146.08689104 319.96944855 143.64403143 322.51082384 141.125 325.1875 C140.38926758 325.98124023 140.38926758 325.98124023 139.63867188 326.79101562 C138.28827647 328.2434652 136.9258335 329.68468778 135.5625 331.125 C134.99402344 331.74246094 134.42554688 332.35992187 133.83984375 332.99609375 C132.5625 334.125 132.5625 334.125 130.5625 334.125 C130.2325 335.115 129.9025 336.105 129.5625 337.125 C127.89583333 337.79166667 126.22916667 338.45833333 124.5625 339.125 C124.2325 340.115 123.9025 341.105 123.5625 342.125 C121.41101357 343.9184027 119.27454052 345.56408575 117 347.1875 C116.32888184 347.67065674 115.65776367 348.15381348 114.96630859 348.65161133 C81.70367613 372.326234 44.10980663 385.75658898 3.11157227 385.57104492 C0.26179539 385.56253522 -2.58596572 385.59144746 -5.43554688 385.62304688 C-24.73935062 385.69600404 -43.15797428 382.22572377 -61.4375 376.125 C-62.69046875 375.71894531 -63.9434375 375.31289063 -65.234375 374.89453125 C-82.43075054 369.04489934 -98.96824787 360.06083313 -113.4375 349.125 C-114.52660191 348.31930874 -115.61646612 347.51464706 -116.70703125 346.7109375 C-119.63687866 344.54088992 -122.54737383 342.34784704 -125.4375 340.125 C-126.3759375 339.41988281 -127.314375 338.71476562 -128.28125 337.98828125 C-129.34859375 337.06595703 -129.34859375 337.06595703 -130.4375 336.125 C-130.4375 335.465 -130.4375 334.805 -130.4375 334.125 C-131.4275 333.795 -132.4175 333.465 -133.4375 333.125 C-133.4375 332.465 -133.4375 331.805 -133.4375 331.125 C-134.076875 330.856875 -134.71625 330.58875 -135.375 330.3125 C-137.4375 329.125 -137.4375 329.125 -138.4375 326.125 C-139.4275 325.795 -140.4175 325.465 -141.4375 325.125 C-141.4375 324.465 -141.4375 323.805 -141.4375 323.125 C-142.0975 323.125 -142.7575 323.125 -143.4375 323.125 C-145.23003943 321.05784594 -146.90605665 318.98507744 -148.5625 316.8125 C-149.0560498 316.1716748 -149.54959961 315.53084961 -150.05810547 314.87060547 C-151.05904789 313.56622902 -152.05662667 312.25926433 -153.05078125 310.94970703 C-154.23225501 309.3950706 -155.42723624 307.85071459 -156.625 306.30859375 C-162.38533562 298.70169893 -166.93207253 290.5105465 -171.4375 282.125 C-171.91058594 281.26261719 -172.38367188 280.40023438 -172.87109375 279.51171875 C-181.63199235 262.88037354 -186.94444546 244.51151786 -190.4375 226.125 C-190.60813965 225.33746338 -190.7787793 224.54992676 -190.95458984 223.73852539 C-192.9062167 213.81353315 -192.83347775 203.88703688 -192.8125 193.8125 C-192.81228851 192.87947052 -192.81207703 191.94644104 -192.81185913 190.98513794 C-192.77950012 176.69180933 -192.03844564 163.02281566 -188.4375 149.125 C-188.25558105 148.38749512 -188.07366211 147.64999023 -187.88623047 146.89013672 C-182.28783095 124.60160243 -172.90397401 104.45294254 -160.5625 85.1875 C-159.99055908 84.291521 -159.41861816 83.39554199 -158.8293457 82.47241211 C-158.02049927 81.23503296 -158.02049927 81.23503296 -157.1953125 79.97265625 C-156.7120752 79.23023682 -156.22883789 78.48781738 -155.73095703 77.72290039 C-155.30411621 77.19559326 -154.87727539 76.66828613 -154.4375 76.125 C-153.7775 76.125 -153.1175 76.125 -152.4375 76.125 C-152.17582031 75.55652344 -151.91414063 74.98804688 -151.64453125 74.40234375 C-144.97178331 61.81266075 -131.18564334 49.01269867 -119.4375 41.125 C-118.7775 41.125 -118.1175 41.125 -117.4375 41.125 C-117.4375 40.465 -117.4375 39.805 -117.4375 39.125 C-114.29288571 36.53973142 -110.82759709 34.37441839 -107.4375 32.125 C-106.14005859 31.24908203 -106.14005859 31.24908203 -104.81640625 30.35546875 C-97.65850868 25.64380661 -90.15295772 21.82020813 -82.4375 18.125 C-81.39851563 17.609375 -80.35953125 17.09375 -79.2890625 16.5625 C-66.37233147 10.31561748 -53.07398846 6.27690869 -39.0625 3.3125 C-38.08885498 3.1055249 -37.11520996 2.8985498 -36.11206055 2.68530273 C-24.09592662 0.27068914 -12.22869262 -0.03584375 0 0 Z " fill="#5888FA" transform="translate(256.4375,73.875)"/>
<path d="M0 0 C3.22608355 2.10070557 4.96822615 3.91912112 6.375 7.5 C6.85103258 10.92743458 6.74514728 14.29116303 6.6875 17.75 C6.0275 17.75 5.3675 17.75 4.6875 17.75 C2.30324367 23.31326476 1.22636317 27.11589677 3 33 C7.16525735 48.50483259 7.09008707 64.49907152 7.0625 80.4375 C7.06268127 82.04750381 7.06268127 82.04750381 7.06286621 83.69003296 C6.9723261 140.29076349 6.9723261 140.29076349 -8.3125 157.75 C-14.34254136 163.2249748 -19.71473169 164.12853942 -27.62890625 164.0234375 C-31.50821776 163.62816558 -33.44074368 162.35461619 -36.3125 159.75 C-36.82425781 159.28722656 -37.33601562 158.82445312 -37.86328125 158.34765625 C-47.11415203 148.95905538 -48.57067767 133.08280286 -48.69140625 120.5078125 C-48.70840073 119.57701874 -48.7253952 118.64622498 -48.74290466 117.68722534 C-48.79548334 114.74988357 -48.83610642 111.81255219 -48.875 108.875 C-48.91905145 105.91609068 -48.96576175 102.95728444 -49.01780701 99.99850464 C-49.04956598 98.1666552 -49.07651619 96.33471438 -49.09803772 94.50271606 C-49.11152756 93.67440277 -49.1250174 92.84608948 -49.13891602 91.99267578 C-49.14842789 91.2678299 -49.15793976 90.54298401 -49.16773987 89.7961731 C-49.3197606 87.64737192 -49.61540409 85.79007372 -50.3125 83.75 C-50.9725 83.42 -51.6325 83.09 -52.3125 82.75 C-52.45945312 83.38421875 -52.60640625 84.0184375 -52.7578125 84.671875 C-62.33935089 124.5398853 -62.33935089 124.5398853 -76.546875 135.46875 C-83.0018569 138.45919359 -92.48456243 138.07986932 -99.1796875 135.75390625 C-110.9253628 128.58050939 -116.69521116 113.44094204 -120.59375 100.88671875 C-122.1164917 96.35987251 -124.17821741 92.01856518 -126.3125 87.75 C-127.3025 87.75 -128.2925 87.75 -129.3125 87.75 C-134.71704716 98.55909432 -129.09624109 117.51235931 -126.66796875 128.7265625 C-124.95536927 137.08010527 -122.8337546 148.09416352 -127 155.9375 C-131.26310113 161.12235273 -136.60731488 165.43502553 -143.3125 166.75 C-150.36055707 167.26692379 -156.05201728 167.16480875 -162.3125 163.75 C-161.4375 159.875 -161.4375 159.875 -160.3125 158.75 C-160.27157063 156.41702567 -160.27008277 154.08294775 -160.3125 151.75 C-160.9725 152.08 -161.6325 152.41 -162.3125 152.75 C-163.9821807 152.76614884 -165.65278286 152.71515778 -167.3203125 152.62890625 C-168.30644531 152.58056641 -169.29257813 152.53222656 -170.30859375 152.48242188 C-171.34113281 152.42634766 -172.37367188 152.37027344 -173.4375 152.3125 C-174.47777344 152.26029297 -175.51804688 152.20808594 -176.58984375 152.15429688 C-179.16435116 152.02439054 -181.73849296 151.88941748 -184.3125 151.75 C-184.47265625 149.3984375 -184.47265625 149.3984375 -184.3125 146.75 C-183.0440625 145.574375 -183.0440625 145.574375 -181.75 144.375 C-180.945625 143.50875 -180.14125 142.6425 -179.3125 141.75 C-179.65371053 137.44201024 -180.59579057 133.26863345 -181.44541931 129.03501892 C-183.39300598 119.04928748 -183.82996067 109.34070497 -183.75 99.1875 C-183.74695862 98.36294312 -183.74391724 97.53838623 -183.74078369 96.68884277 C-183.63309741 76.85255123 -181.08154138 58.32968912 -174.04296875 39.70605469 C-173.34636438 37.84068229 -172.70296991 35.95569578 -172.0625 34.0703125 C-168.19579648 23.05529523 -162.28561963 15.00764369 -152.3125 8.75 C-145.20950599 5.88387961 -138.38972796 5.76508511 -131.37890625 8.71484375 C-110.59802649 19.12492529 -100.85108908 40.04404609 -93.75 61.0625 C-93.48106934 61.89861816 -93.21213867 62.73473633 -92.93505859 63.59619141 C-91.03009709 69.34078736 -88.68032471 75.38217529 -84.3125 79.75 C-82.64632885 79.79063832 -80.97861905 79.792721 -79.3125 79.75 C-77.14700582 74.88237313 -75.32166876 70.02615528 -73.75 64.9375 C-73.53239014 64.23971436 -73.31478027 63.54192871 -73.09057617 62.82299805 C-71.66558724 58.15876073 -70.56101028 53.51556718 -69.70703125 48.7109375 C-69.21138095 46.24740829 -68.26480936 44.07125406 -67.3125 41.75 C-67.02722983 40.41968071 -66.75846144 39.08578672 -66.5 37.75 C-63.38269211 23.27505871 -57.1336284 12.32830299 -44.828125 4.0859375 C-39.72326754 2.14609166 -34.96664793 2.50959948 -29.5625 2.6875 C-27.48461404 2.74726783 -25.40645899 2.79849051 -23.328125 2.83984375 C-21.95575684 2.88419556 -21.95575684 2.88419556 -20.55566406 2.92944336 C-18.10780054 2.9776137 -18.10780054 2.9776137 -16.3125 0.75 C-10.89892622 -2.11600965 -5.59795116 -2.1124344 0 0 Z " fill="#F9F9FA" transform="translate(343.3125,182.25)"/>
<path d="M0 0 C4.69931185 0.58286039 8.48409924 2.1963647 11.75 5.6875 C14.38641385 10.26653458 14.02366681 14.57999139 13.9375 19.75 C13.2775 19.75 12.6175 19.75 11.9375 19.75 C11.669375 20.513125 11.40125 21.27625 11.125 22.0625 C9.99325888 24.62380884 9.02526599 25.94692938 6.9375 27.75 C6.6075 27.42 6.2775 27.09 5.9375 26.75 C4.55882808 27.00147449 3.18442323 27.27648889 1.8125 27.5625 C-1.09523396 27.93409539 -2.56883973 28.01231395 -5.1796875 26.625 C-9.89491616 22.71194717 -10.74804871 20.06907825 -11.5625 14.0625 C-11.48930208 9.20398824 -9.21047715 6.09510454 -6.12890625 2.484375 C-3.90227432 0.61551946 -2.86840779 0.11053595 0 0 Z " fill="#FBD351" transform="translate(336.0625,180.25)"/>
<path d="M0 0 C4.23834522 -0.32372085 7.21899601 -0.50120631 10.72265625 2.10546875 C14.44918793 6.4784396 16.47616629 10.45762724 16.02734375 16.26171875 C15.01409757 20.0340069 12.963451 22.45983961 10.44921875 25.4140625 C10.11921875 24.4240625 9.78921875 23.4340625 9.44921875 22.4140625 C10.10921875 21.7540625 10.76921875 21.0940625 11.44921875 20.4140625 C11.61599157 16.83062274 11.61599157 16.83062274 11.44921875 13.4140625 C10.45921875 13.9090625 10.45921875 13.9090625 9.44921875 14.4140625 C7.77953805 14.43021134 6.10893589 14.37922028 4.44140625 14.29296875 C3.45527344 14.24462891 2.46914062 14.19628906 1.453125 14.14648438 C-0.09568359 14.06237305 -0.09568359 14.06237305 -1.67578125 13.9765625 C-2.71605469 13.92435547 -3.75632813 13.87214844 -4.828125 13.81835938 C-7.40263241 13.68845304 -9.97677421 13.55347998 -12.55078125 13.4140625 C-12.67394605 9.41859644 -12.50563143 7.69028102 -9.80078125 4.6640625 C-9.03507813 3.77460938 -9.03507813 3.77460938 -8.25390625 2.8671875 C-5.67185473 0.66415272 -3.28376701 0.53304641 0 0 Z " fill="#D0DEFC" transform="translate(171.55078125,320.5859375)"/>
<path d="M0 0 C1.875 1.375 1.875 1.375 2.625 4 C2.74875 5.175625 2.74875 5.175625 2.875 6.375 C-0.095 6.375 -3.065 6.375 -6.125 6.375 C-6.125 7.035 -6.125 7.695 -6.125 8.375 C0.86033796 9.94401859 0.86033796 9.94401859 7.875 11.375 C8.12556368 14.29824292 7.88877065 16.33460608 6.9375 19.125 C4.19000861 22.12226334 2.08519615 22.35461393 -1.890625 22.5625 C-4.125 22.375 -4.125 22.375 -7.25 20.9375 C-9.36036749 18.05333109 -9.34008234 17.50789343 -8.9375 14.125 C-8.669375 12.8875 -8.40125 11.65 -8.125 10.375 C-8.785 10.375 -9.445 10.375 -10.125 10.375 C-10.4375 7.0625 -10.4375 7.0625 -10.125 3.375 C-7.17228563 0.98090727 -3.83402485 -1.12765437 0 0 Z " fill="#E3A84C" transform="translate(337.125,185.625)"/>
<path d="M0 0 C0.721875 0.165 1.44375 0.33 2.1875 0.5 C3.15266106 2.99333273 3.44472189 4.80623582 2.50390625 7.34375 C1.79766335 8.8166924 1.08481694 10.28647777 0.3671875 11.75390625 C-1.53093763 16.17238957 -2.60417967 20.80799115 -3.78515625 25.4609375 C-4.76342407 28.35482482 -5.33774435 29.75874151 -7.8125 31.5 C-10 31.1875 -10 31.1875 -11.8125 30.5 C-13.37447157 25.61160748 -12.1472159 21.91348531 -10.6875 17.1875 C-10.45740234 16.43218994 -10.22730469 15.67687988 -9.99023438 14.89868164 C-5.5754441 0.99119006 -5.5754441 0.99119006 0 0 Z " fill="#51A2F6" transform="translate(187.8125,207.5)"/>
<path d="M0 0 C4.09816754 0.05875509 6.83226684 0.98380166 10.3125 3.25 C14.84368527 8.0936808 14.41744799 12.95312053 14.3125 19.25 C13.6525 19.25 12.9925 19.25 12.3125 19.25 C12.044375 20.013125 11.77625 20.77625 11.5 21.5625 C10.36825888 24.12380884 9.40026599 25.44692938 7.3125 27.25 C7.07207724 23.16281305 7.88991188 20.07320557 9.3125 16.25 C8.219375 16.105625 7.12625 15.96125 6 15.8125 C2.3125 15.25 2.3125 15.25 -0.6875 14.25 C-0.6875 13.59 -0.6875 12.93 -0.6875 12.25 C3.2725 12.58 7.2325 12.91 11.3125 13.25 C10.838125 12.156875 10.36375 11.06375 9.875 9.9375 C8.91062191 7.71523745 8.08083172 5.55499515 7.3125 3.25 C6.61382812 3.18941406 5.91515625 3.12882813 5.1953125 3.06640625 C4.28523438 2.98261719 3.37515625 2.89882812 2.4375 2.8125 C1.53257812 2.73128906 0.62765625 2.65007812 -0.3046875 2.56640625 C-2.6875 2.25 -2.6875 2.25 -4.6875 1.25 C-3.6875 0.25 -3.6875 0.25 0 0 Z " fill="#CFB8B0" transform="translate(335.6875,180.75)"/>
<path d="M0 0 C2.88956687 1.29532308 5.01041688 2.5130211 7 5 C7.29296875 7.26171875 7.29296875 7.26171875 7.1875 9.6875 C7.16042969 10.49574219 7.13335937 11.30398438 7.10546875 12.13671875 C7.07066406 12.75160156 7.03585938 13.36648438 7 14 C6.34 12.68 5.68 11.36 5 10 C4.01 10.495 4.01 10.495 3 11 C0.30434798 10.83219837 -2.32405554 10.38844355 -5 10 C-5 8.35 -5 6.7 -5 5 C-4.34 5 -3.68 5 -3 5 C-2.5359375 4.0409375 -2.5359375 4.0409375 -2.0625 3.0625 C-1 1 -1 1 0 0 Z " fill="#98B8FC" transform="translate(178,324)"/>
<path d="M0 0 C4.81938524 -0.23509196 8.46298506 0.54815522 13 2 C13 3.65 13 5.3 13 7 C8.96353928 8.32432194 6.55666572 7.57072473 2.70703125 6.03515625 C1 5 1 5 0 2.3125 C0 1.549375 0 0.78625 0 0 Z " fill="#C06736" transform="translate(332,195)"/>
<path d="M0 0 C4.05910468 1.35303489 4.9213069 3.34436731 7 7 C7 8.32 7 9.64 7 11 C2.83861737 11.08159574 -0.9472484 10.98248524 -5 10 C-5.33 10.66 -5.66 11.32 -6 12 C-6.99 11.67 -7.98 11.34 -9 11 C-9 10.34 -9 9.68 -9 9 C-6.03 9 -3.06 9 0 9 C-0.33 7.68 -0.66 6.36 -1 5 C-0.5625 2.25 -0.5625 2.25 0 0 Z " fill="#F8E6A0" transform="translate(340,183)"/>
<path d="M0 0 C0.556875 0.226875 1.11375 0.45375 1.6875 0.6875 C0.8625 1.5125 0.0375 2.3375 -0.8125 3.1875 C-2.93879234 5.73543672 -3.69319069 7.42349958 -3.75 10.75 C-3.14801711 16.16784601 -1.73674326 19.48501963 1.6875 23.6875 C1.089375 23.378125 0.49125 23.06875 -0.125 22.75 C-2.40206772 21.58540296 -2.40206772 21.58540296 -5.3125 20.6875 C-6.39207377 17.44877868 -6.44576784 15.02721795 -6.4375 11.625 C-6.44007813 10.56152344 -6.44265625 9.49804688 -6.4453125 8.40234375 C-6.3125 5.6875 -6.3125 5.6875 -5.3125 3.6875 C-5.9725 3.3575 -6.6325 3.0275 -7.3125 2.6875 C-2.88173077 -0.38942308 -2.88173077 -0.38942308 0 0 Z " fill="#F1DBC5" transform="translate(329.3125,183.3125)"/>
<path d="M0 0 C4.09816754 0.05875509 6.83226684 0.98380166 10.3125 3.25 C14.84368527 8.0936808 14.41744799 12.95312053 14.3125 19.25 C13.6525 19.25 12.9925 19.25 12.3125 19.25 C12.11914062 18.43015625 11.92578125 17.6103125 11.7265625 16.765625 C11.33597656 15.14914063 11.33597656 15.14914063 10.9375 13.5 C10.68226563 12.43265625 10.42703125 11.3653125 10.1640625 10.265625 C9.17675781 6.54158211 9.17675781 6.54158211 7.3125 3.25 C4.96166745 2.58446517 4.96166745 2.58446517 2.3125 2.5625 C-2.55805016 2.31472492 -2.55805016 2.31472492 -4.6875 1.25 C-3.6875 0.25 -3.6875 0.25 0 0 Z " fill="#BEBFDC" transform="translate(335.6875,180.75)"/>
<path d="M0 0 C-0.33 1.65 -0.66 3.3 -1 5 C-3.31 5 -5.62 5 -8 5 C-8.33 6.32 -8.66 7.64 -9 9 C-9.66 8.67 -10.32 8.34 -11 8 C-11.3125 5.6875 -11.3125 5.6875 -11 3 C-7.37490271 0.25668313 -4.45471938 -1.48490646 0 0 Z " fill="#EAAD25" transform="translate(338,186)"/>
<path d="M0 0 C3 0.125 3 0.125 4 1.125 C4.1875 3.5625 4.1875 3.5625 4 6.125 C3.34 6.785 2.68 7.445 2 8.125 C-2.55555556 7.56944444 -2.55555556 7.56944444 -4 6.125 C-4.125 3.625 -4.125 3.625 -4 1.125 C-3 0.125 -3 0.125 0 0 Z " fill="#54A0F5" transform="translate(175,246.875)"/>
<path d="M0 0 C3.3 0 6.6 0 10 0 C8.85240511 4.59037956 7.70960782 5.33669182 4 8 C0 3.375 0 3.375 0 0 Z " fill="#155FFC" transform="translate(161,335)"/>
<path d="M0 0 C3.39527689 1.40494216 5.30647023 2.69761694 7 6 C7.71368162 10.00282302 7.79518743 13.48693503 5.875 17.140625 C4.66952716 18.82554727 3.3427366 20.42228449 2 22 C1.67 21.01 1.34 20.02 1 19 C1.474375 18.29875 1.94875 17.5975 2.4375 16.875 C4.5948867 12.90540848 4.76153168 9.43291601 4 5 C2.18409021 1.97309557 2.18409021 1.97309557 0 0 Z " fill="#BBCDFB" transform="translate(180,324)"/>
<path d="M0 0 C0.66 0.33 1.32 0.66 2 1 C1.67 1.33 1.34 1.66 1 2 C0.63239269 4.32817964 0.29758419 6.6618385 0 9 C0.66 9 1.32 9 2 9 C1.67 11.31 1.34 13.62 1 16 C-1 15 -1 15 -1.625 13.4375 C-2.38130949 8.52148832 -2.85488368 4.28232553 0 0 Z " fill="#EDBA6A" transform="translate(327,187)"/>
<path d="M0 0 C0.99 0 1.98 0 3 0 C3.391875 0.86625 3.78375 1.7325 4.1875 2.625 C6.13893957 6.25871505 8.28403159 8.91700883 11 12 C6.71929301 11.52436589 4.6995915 9.19688467 2 6 C0.6875 2.6875 0.6875 2.6875 0 0 Z " fill="#3879FA" transform="translate(158,335)"/>
<path d="M0 0 C2.64 0.33 5.28 0.66 8 1 C8 2.32 8 3.64 8 5 C5.69 4.67 3.38 4.34 1 4 C0.67 2.68 0.34 1.36 0 0 Z " fill="#F1A524" transform="translate(330,203)"/>
<path d="M0 0 C1.98 0.66 3.96 1.32 6 2 C5.01 2.33 4.02 2.66 3 3 C3 3.66 3 4.32 3 5 C3.66 5.33 4.32 5.66 5 6 C2.03 5.67 -0.94 5.34 -4 5 C-4.33 5.66 -4.66 6.32 -5 7 C-5.99 6.67 -6.98 6.34 -8 6 C-8 5.34 -8 4.68 -8 4 C-5.03 4 -2.06 4 1 4 C0.67 2.68 0.34 1.36 0 0 Z " fill="#DCB98B" transform="translate(339,188)"/>
<path d="M0 0 C2.97 0.33 5.94 0.66 9 1 C9 1.66 9 2.32 9 3 C9.99 3.33 10.98 3.66 12 4 C11.67 4.99 11.34 5.98 11 7 C10.67 6.01 10.34 5.02 10 4 C8.906875 3.855625 7.81375 3.71125 6.6875 3.5625 C3 3 3 3 0 2 C0 1.34 0 0.68 0 0 Z " fill="#978DAD" transform="translate(335,193)"/>
<path d="M0 0 C3.63 0.33 7.26 0.66 11 1 C11 1.99 11 2.98 11 4 C6.94393835 3.53199289 3.53411321 3.12046792 0 1 C0 0.67 0 0.34 0 0 Z " fill="#581F0C" transform="translate(334,196)"/>
<path d="M0 0 C2.97 0 5.94 0 9 0 C8.67 1.32 8.34 2.64 8 4 C7.01 4 6.02 4 5 4 C4.67 3.34 4.34 2.68 4 2 C2.68 1.34 1.36 0.68 0 0 Z " fill="#F3C05B" transform="translate(334,203)"/>
<path d="M0 0 C2 0.6875 2 0.6875 4 2.6875 C2.329375 2.9040625 2.329375 2.9040625 0.625 3.125 C-2.82142047 3.47122035 -2.82142047 3.47122035 -5 4.6875 C-4.625 2.75 -4.625 2.75 -4 0.6875 C-2 -0.3125 -2 -0.3125 0 0 Z " fill="#F4B10A" transform="translate(333,188.3125)"/>
<path d="M0 0 C0.8353125 0.37125 0.8353125 0.37125 1.6875 0.75 C0 2.8125 0 2.8125 -2.3125 4.75 C-5.0625 4.5 -5.0625 4.5 -7.3125 3.75 C-2.88173077 -0.31153846 -2.88173077 -0.31153846 0 0 Z " fill="#BEBBDA" transform="translate(329.3125,183.25)"/>
<path d="M0 0 C0.99 0 1.98 0 3 0 C3.33 1.65 3.66 3.3 4 5 C3.01 5.33 2.02 5.66 1 6 C0 3 0 3 0 0 Z " fill="#3D7AFC" transform="translate(171,335)"/>
<path d="M0 0 C1.98 0.495 1.98 0.495 4 1 C4 2.32 4 3.64 4 5 C2.35 4.67 0.7 4.34 -1 4 C-0.67 2.68 -0.34 1.36 0 0 Z " fill="#F2D798" transform="translate(343,189)"/>
<path d="M0 0 C2 3 2 3 2 5 C-0.97 5 -3.94 5 -7 5 C-7.33 5.66 -7.66 6.32 -8 7 C-8 6.01 -8 5.02 -8 4 C-4.535 3.505 -4.535 3.505 -1 3 C-0.67 2.01 -0.34 1.02 0 0 Z " fill="#EFB742" transform="translate(338,187)"/>
<path d="M0 0 C-0.556875 0.268125 -1.11375 0.53625 -1.6875 0.8125 C-4.09821537 2.00329541 -4.09821537 2.00329541 -6.625 3.6875 C-7.40875 4.120625 -8.1925 4.55375 -9 5 C-9.66 4.67 -10.32 4.34 -11 4 C-7.26280719 0.48264206 -5.13496308 -0.47767098 0 0 Z " fill="#F6D285" transform="translate(339,182)"/>
</svg>
